<svg width="40" height="48" viewBox="0 0 40 48" fill="none" xmlns="http://www.w3.org/2000/svg">
<path d="M20 18C21.1046 18 22 17.1046 22 16C22 14.8954 21.1046 14 20 14C18.8954 14 18 14.8954 18 16C18 17.1046 18.8954 18 20 18Z" fill="black"/>
<path d="M20 26C21.1046 26 22 25.1046 22 24C22 22.8954 21.1046 22 20 22C18.8954 22 18 22.8954 18 24C18 25.1046 18.8954 26 20 26Z" fill="black"/>
<path d="M20 34C21.1046 34 22 33.1046 22 32C22 30.8954 21.1046 30 20 30C18.8954 30 18 30.8954 18 32C18 33.1046 18.8954 34 20 34Z" fill="black"/>
</svg>
